<?xml version="1.0" encoding="utf-8"?>
<!-- Generator: Adobe Illustrator 23.0.6, SVG Export Plug-In . SVG Version: 6.00 Build 0)  -->
<svg version="1.1" id="katman_1" xmlns="http://www.w3.org/2000/svg" xmlns:xlink="http://www.w3.org/1999/xlink" x="0px" y="0px"
	 viewBox="0 0 70 72" style="enable-background:new 0 0 70 72;" xml:space="preserve">
<style type="text/css">
	.st0{fill:url(#Path_1883_1_);}
	.st1{fill:url(#Path_1884_1_);}
	.st2{fill:url(#Path_1885_1_);}
	.st3{fill:url(#Path_1886_1_);}
	.st4{fill:url(#Path_1887_1_);}
	.st5{fill:url(#Path_1888_1_);}
	.st6{fill:url(#Path_1889_1_);}
	.st7{fill:url(#Path_1890_1_);}
</style>
<g id="mision-icon" transform="translate(-9206 -8868)">
	
		<image style="overflow:visible;opacity:4.000000e-02;enable-background:new    ;" width="70" height="71" id="Rectangle_1469" xlink:href="F6FF9342.png"  transform="matrix(1 0 0 1 9205.9111 8873.0254)">
	</image>
	<g id="Group_1687">
		<g id="Group_1686">
			
				<linearGradient id="Path_1883_1_" gradientUnits="userSpaceOnUse" x1="9211.7178" y1="8934.3281" x2="9211.7139" y2="8935.2324" gradientTransform="matrix(64 0 0 -64.002 -580309 580750.4375)">
				<stop  offset="0" style="stop-color:#C8E4FF"/>
				<stop  offset="1" style="stop-color:#DCECF7"/>
			</linearGradient>
			<path id="Path_1883" class="st0" d="M9272.7,8933.6l-22.3-38.5V8884h15c0.7,0,1.3-0.6,1.3-1.3l0,0v-10c0-0.7-0.6-1.3-1.3-1.3l0,0
				h-16.3c-0.7,0-1.3,0.6-1.3,1.3l0,0v11.1l-2.7,3.7c-0.4,0.6-0.3,1.3,0.3,1.7c0.6,0.4,1.3,0.3,1.7-0.3l0.6-0.9v7l-9.9,15.8
				l-8.4-6.4c-0.5-0.4-1.3-0.3-1.8,0.2c0,0,0,0.1-0.1,0.1l-18.8,28.8c-0.4,0.6-0.2,1.4,0.4,1.7c0.2,0.1,0.4,0.2,0.7,0.2h61.5
				c0.7,0,1.3-0.6,1.3-1.3C9272.9,8934.1,9272.9,8933.8,9272.7,8933.6L9272.7,8933.6z M9250.4,8874h13.8v7.5h-13.8V8874z
				 M9212.5,8933l16.8-25.7l7.5,5.8l-3.9,6.9c-0.3,0.6-0.1,1.4,0.5,1.7c0.2,0.1,0.4,0.2,0.6,0.2c0.4,0,0.9-0.2,1.1-0.6l4.4-7.8
				l9.7-15.5c0,0,0.1,0,0.1,0h0l20.3,35L9212.5,8933z"/>
			
				<linearGradient id="Path_1884_1_" gradientUnits="userSpaceOnUse" x1="9315.4844" y1="8791.0527" x2="9315.3809" y2="8814.2236" gradientTransform="matrix(2.5 0 0 -2.5 -14057.252 30913.7148)">
				<stop  offset="0" style="stop-color:#C8E4FF"/>
				<stop  offset="1" style="stop-color:#DCECF7"/>
			</linearGradient>
			<path id="Path_1884" class="st1" d="M9232,8923.9c-0.2-0.1-0.4-0.2-0.6-0.2c-0.7,0-1.3,0.6-1.3,1.3c0,0.7,0.6,1.3,1.2,1.3
				c0.4,0,0.9-0.2,1.1-0.6C9232.8,8925,9232.6,8924.2,9232,8923.9z"/>
			
				<linearGradient id="Path_1885_1_" gradientUnits="userSpaceOnUse" x1="9245.5508" y1="8875.6787" x2="9245.5146" y2="8885.125" gradientTransform="matrix(7.0977 0 0 -6.1338 -56386.375 63377.6133)">
				<stop  offset="0" style="stop-color:#C8E4FF"/>
				<stop  offset="1" style="stop-color:#DCECF7"/>
			</linearGradient>
			<path id="Path_1885" class="st2" d="M9234.9,8903.6c0.2,0.3,0.6,0.5,1,0.5h0c0.4,0,0.8-0.2,1-0.5l1.6-2.3
				c0.4-0.6,0.3-1.3-0.3-1.7c-0.6-0.4-1.3-0.3-1.7,0.3l-0.7,1l-1.9-2.4c-0.4-0.5-1.2-0.6-1.8-0.2s-0.6,1.2-0.2,1.8L9234.9,8903.6z"
				/>
			
				<linearGradient id="Path_1886_1_" gradientUnits="userSpaceOnUse" x1="9257.3877" y1="8878.9277" x2="9257.3408" y2="8887.7529" gradientTransform="matrix(5.4141 0 0 -6.5635 -40878.0156 67212.6719)">
				<stop  offset="0" style="stop-color:#C8E4FF"/>
				<stop  offset="1" style="stop-color:#DCECF7"/>
			</linearGradient>
			<path id="Path_1886" class="st3" d="M9239.7,8897.5c0.6,0.4,1.3,0.3,1.7-0.3l2.9-4.1c0.4-0.6,0.3-1.3-0.3-1.7
				c-0.6-0.4-1.3-0.3-1.7,0.3l-2.9,4.1C9239,8896.3,9239.1,8897.1,9239.7,8897.5L9239.7,8897.5z"/>
			
				<linearGradient id="Path_1887_1_" gradientUnits="userSpaceOnUse" x1="9258.0703" y1="8868.2627" x2="9258.0225" y2="8878.6504" gradientTransform="matrix(5.3408 0 0 -5.5762 -40217.1914 58387.0508)">
				<stop  offset="0" style="stop-color:#C8E4FF"/>
				<stop  offset="1" style="stop-color:#DCECF7"/>
			</linearGradient>
			<path id="Path_1887" class="st4" d="M9226.2,8898.4c0.6,0.4,1.3,0.2,1.7-0.4c0,0,0,0,0,0l1.1-1.7c0.6,0.4,1.4,0.2,1.7-0.3
				c0.3-0.5,0.3-1.1-0.1-1.5l-0.8-1c-0.4-0.5-1.2-0.6-1.8-0.2c-0.1,0.1-0.2,0.2-0.3,0.3l-2,3.1
				C9225.5,8897.2,9225.6,8898,9226.2,8898.4L9226.2,8898.4z"/>
			
				<linearGradient id="Path_1888_1_" gradientUnits="userSpaceOnUse" x1="9259.1406" y1="8881.4336" x2="9259.0918" y2="8890.0947" gradientTransform="matrix(5.2295 0 0 -6.6875 -39197.6523 68330.7031)">
				<stop  offset="0" style="stop-color:#C8E4FF"/>
				<stop  offset="1" style="stop-color:#DCECF7"/>
			</linearGradient>
			<path id="Path_1888" class="st5" d="M9220.8,8906.8c0.6,0.4,1.4,0.2,1.7-0.4v0l2.7-4.2c0.4-0.6,0.2-1.4-0.4-1.7
				c-0.6-0.4-1.4-0.2-1.7,0.4l0,0l-2.7,4.2C9220,8905.6,9220.2,8906.4,9220.8,8906.8z"/>
			
				<linearGradient id="Path_1889_1_" gradientUnits="userSpaceOnUse" x1="9271.4502" y1="8867.1504" x2="9271.3887" y2="8878.4189" gradientTransform="matrix(4.2217 0 0 -5.1396 -29930.0059 54510.207)">
				<stop  offset="0" style="stop-color:#C8E4FF"/>
				<stop  offset="1" style="stop-color:#DCECF7"/>
			</linearGradient>
			<path id="Path_1889" class="st6" d="M9209.5,8924.1c0.6,0.4,1.4,0.2,1.7-0.4l0,0l1.7-2.6c0.4-0.6,0.2-1.4-0.4-1.7
				c-0.6-0.4-1.4-0.2-1.7,0.4l0,0l-1.7,2.6C9208.7,8922.9,9208.9,8923.7,9209.5,8924.1z"/>
			
				<linearGradient id="Path_1890_1_" gradientUnits="userSpaceOnUse" x1="9259.0938" y1="8883.002" x2="9259.0449" y2="8891.6621" gradientTransform="matrix(5.2334 0 0 -6.6885 -39240.4492 68349.8984)">
				<stop  offset="0" style="stop-color:#C8E4FF"/>
				<stop  offset="1" style="stop-color:#DCECF7"/>
			</linearGradient>
			<path id="Path_1890" class="st7" d="M9213.9,8917.2c0.2,0.1,0.4,0.2,0.7,0.2c0.4,0,0.8-0.2,1-0.6l2.7-4.2
				c0.4-0.6,0.2-1.4-0.4-1.7s-1.4-0.2-1.7,0.4l-2.7,4.2C9213.2,8916.1,9213.4,8916.9,9213.9,8917.2
				C9213.9,8917.2,9213.9,8917.2,9213.9,8917.2z"/>
		</g>
	</g>
</g>
</svg>
