<svg id="icon-fom-orange" xmlns="http://www.w3.org/2000/svg" xmlns:xlink="http://www.w3.org/1999/xlink" width="47.702" height="47.699" viewBox="0 0 47.702 47.699">
  <defs>
    <linearGradient id="linear-gradient" x1="0.457" y1="3.261" x2="0.571" y2="-4.32" gradientUnits="objectBoundingBox">
      <stop offset="0" stop-color="#ffbe72"/>
      <stop offset="0.216" stop-color="#ffbe72" stop-opacity="0.761"/>
      <stop offset="0.604" stop-color="#ffbe72" stop-opacity="0.357"/>
      <stop offset="0.874" stop-color="#ffbe72" stop-opacity="0.098"/>
      <stop offset="1" stop-color="#ffbe72" stop-opacity="0"/>
    </linearGradient>
    <linearGradient id="linear-gradient-2" x1="0.49" y1="1.247" x2="0.575" y2="-2.873" xlink:href="#linear-gradient"/>
    <linearGradient id="linear-gradient-3" x1="0.402" y1="3.799" x2="0.898" y2="-12.85" xlink:href="#linear-gradient"/>
    <linearGradient id="linear-gradient-4" x1="0.454" y1="3.89" x2="0.609" y2="-6.161" xlink:href="#linear-gradient"/>
    <linearGradient id="linear-gradient-5" x1="0.338" y1="27.072" x2="0.761" y2="-42.254" xlink:href="#linear-gradient"/>
    <linearGradient id="linear-gradient-6" x1="-0.295" y1="27.204" x2="1.768" y2="-42.123" xlink:href="#linear-gradient"/>
    <linearGradient id="linear-gradient-7" x1="0.101" y1="24.877" x2="1.235" y2="-44.488" xlink:href="#linear-gradient"/>
    <linearGradient id="linear-gradient-8" x1="0.29" y1="24.983" x2="0.885" y2="-44.382" xlink:href="#linear-gradient"/>
    <linearGradient id="linear-gradient-9" x1="0.295" y1="7.383" x2="2.36" y2="-61.979" xlink:href="#linear-gradient"/>
  </defs>
  <g id="Group_713" data-name="Group 713" transform="translate(-4725.593 -619.658)" opacity="0.53">
    <g id="Group_696" data-name="Group 696">
      <g id="Group_695" data-name="Group 695">
        <path id="Path_851" data-name="Path 851" d="M4769.38,619.658H4740.5a.931.931,0,1,0,0,1.863h25.551a3.883,3.883,0,0,0-.582,2.049v12.2a.932.932,0,0,0,1.863,0v-2.887h5.031a.932.932,0,0,0,.932-.932V623.57A3.917,3.917,0,0,0,4769.38,619.658Zm2.05,11.365h-4.1V623.57a2.05,2.05,0,0,1,4.1,0v7.453Z" fill="url(#linear-gradient)"/>
      </g>
    </g>
    <g id="Group_698" data-name="Group 698">
      <g id="Group_697" data-name="Group 697">
        <path id="Path_852" data-name="Path 852" d="M4772.276,657.624l-6.085-6.085a10.807,10.807,0,1,0-19.8-.874l-1.09,1.091-4.485-4.485a.932.932,0,0,0-1.318,0l-1.049,1.048v-8.507a.932.932,0,1,0-1.863,0v10.37l-8.423,8.424a.932.932,0,1,0,1.317,1.318l7.106-7.106v6.714h-4.1a.931.931,0,0,0-.932.931v2.982a3.917,3.917,0,0,0,3.913,3.912h27.949a3.917,3.917,0,0,0,3.913-3.913v-.8a3.463,3.463,0,0,0,2.429.98h.017a3.526,3.526,0,0,0,2.5-6Zm-15.795-19.77a8.944,8.944,0,1,1-7.857,13.213l5.384-5.384V647.8a.932.932,0,0,0,1.863,0v-4.472a.931.931,0,0,0-.931-.931h-4.472a.932.932,0,0,0,0,1.863h2.331l-4.935,4.935a8.943,8.943,0,0,1,8.617-11.338Zm-21.013,27.64a2.053,2.053,0,0,1-2.05-2.05V661.4H4759.5v1.118c0,.03,0,.06,0,.09s0,.06,0,.09v.751a3.894,3.894,0,0,0,.582,2.05Zm30-2.05a2.049,2.049,0,1,1-4.1,0v-.751a.781.781,0,0,0-.005-.09.8.8,0,0,0,.005-.091v-2.049a.932.932,0,0,0-.932-.932h-21.988v-8.577l1.708-1.707,4.485,4.485a.932.932,0,0,0,1.318,0l1.3-1.3a10.8,10.8,0,0,0,13.941,4.087l4.265,4.266Zm5.474-2.171a1.66,1.66,0,0,1-1.174.488h-.008a1.612,1.612,0,0,1-1.149-.471l-5.765-5.764a10.9,10.9,0,0,0,2.351-2.347l5.763,5.763A1.65,1.65,0,0,1,4770.941,661.273Z" fill="url(#linear-gradient-2)"/>
      </g>
    </g>
    <g id="Group_700" data-name="Group 700">
      <g id="Group_699" data-name="Group 699">
        <path id="Path_853" data-name="Path 853" d="M4762.38,645.866a.931.931,0,0,0-.932.931,4.972,4.972,0,0,1-4.967,4.967.932.932,0,1,0,0,1.864,6.838,6.838,0,0,0,6.83-6.831A.931.931,0,0,0,4762.38,645.866Z" fill="url(#linear-gradient-3)"/>
      </g>
    </g>
    <g id="Group_702" data-name="Group 702">
      <g id="Group_701" data-name="Group 701">
        <path id="Path_854" data-name="Path 854" d="M4749.455,635.682h-.85V629.44a.932.932,0,0,0-.932-.932h-4.279a.931.931,0,0,0-.931.932v6.242h-1.5V625.62a.932.932,0,0,0-.932-.932h-4.1a.932.932,0,0,0-.931.932v10.062h-1.491v-4.1a.931.931,0,0,0-.931-.931h-4.1a.931.931,0,0,0-.931.931v4.1h-1.025a.931.931,0,1,0,0,1.863h22.93a.931.931,0,1,0,0-1.863Zm-17.806,0h-2.236v-3.168h2.236Zm7.453,0h-2.236v-9.13h2.236Zm7.639,0h-2.415v-5.311h2.415Z" fill="url(#linear-gradient-4)"/>
      </g>
    </g>
    <g id="Group_704" data-name="Group 704">
      <g id="Group_703" data-name="Group 703">
        <path id="Path_855" data-name="Path 855" d="M4757.032,624.688h-7.216a.932.932,0,1,0,0,1.864h7.216a.932.932,0,0,0,0-1.864Z" fill="url(#linear-gradient-5)"/>
      </g>
    </g>
    <g id="Group_706" data-name="Group 706">
      <g id="Group_705" data-name="Group 705">
        <path id="Path_856" data-name="Path 856" d="M4762.3,624.961a.931.931,0,1,0,.273.659A.941.941,0,0,0,4762.3,624.961Z" fill="url(#linear-gradient-6)"/>
      </g>
    </g>
    <g id="Group_708" data-name="Group 708">
      <g id="Group_707" data-name="Group 707">
        <path id="Path_857" data-name="Path 857" d="M4753.424,628.788H4751.9a.931.931,0,0,0,0,1.863h1.528a.931.931,0,1,0,0-1.863Z" fill="url(#linear-gradient-7)"/>
      </g>
    </g>
    <g id="Group_710" data-name="Group 710">
      <g id="Group_709" data-name="Group 709">
        <path id="Path_858" data-name="Path 858" d="M4761.641,628.788h-4.609a.931.931,0,0,0,0,1.863h4.609a.931.931,0,0,0,0-1.863Z" fill="url(#linear-gradient-8)"/>
      </g>
    </g>
    <g id="Group_712" data-name="Group 712">
      <g id="Group_711" data-name="Group 711">
        <path id="Path_859" data-name="Path 859" d="M4727.185,660.9a.932.932,0,0,0-1.318,0,.931.931,0,1,0,1.318,0Z" fill="url(#linear-gradient-9)"/>
      </g>
    </g>
  </g>
</svg>
