<svg xmlns="http://www.w3.org/2000/svg" xmlns:xlink="http://www.w3.org/1999/xlink" id="Component_19_1" width="129.821" height="97.937" data-name="Component 19 – 1" viewBox="0 0 129.821 97.937">
    <defs>
        <style>
            .cls-1{fill:url(#linear-gradient)}.cls-2{fill:url(#linear-gradient-2)}
        </style>
        <linearGradient id="linear-gradient" x1=".454" x2=".784" y1="1.1" y2="-.991" gradientUnits="objectBoundingBox">
            <stop offset="0" stop-color="#c8e4ff"/>
            <stop offset="1" stop-color="#dcecf7"/>
        </linearGradient>
        <linearGradient id="linear-gradient-2" x1=".465" x2=".675" y1="1.075" y2="-.859" xlink:href="#linear-gradient"/>
    </defs>
    <path id="Path_3175" d="M1074.615 11098.952l-7.409-3.233-4.049-4.05a1.51 1.51 0 0 0-.975-.44v-2.387a15.668 15.668 0 0 0 6.807-10.2 4.331 4.331 0 0 0 1.2-.113 4.516 4.516 0 0 0 3.35-4.424V11073a4.527 4.527 0 0 0-1.944-3.731 17.173 17.173 0 0 0 .524-4.2 17.69 17.69 0 0 0-8.519-15 10.046 10.046 0 0 0-20.062 0 17.691 17.691 0 0 0-8.519 15 17.182 17.182 0 0 0 .521 4.191 4.533 4.533 0 0 0-1.941 3.76v1.09a4.516 4.516 0 0 0 3.351 4.424 4.32 4.32 0 0 0 1.2.113 15.669 15.669 0 0 0 6.808 10.2v2.387a1.507 1.507 0 0 0-.975.44l-4.05 4.05-7.408 3.233a10.1 10.1 0 0 0-6.011 9.621l.9 21.138a1.517 1.517 0 0 0 1.515 1.453h.065a1.518 1.518 0 0 0 1.452-1.58l-.9-21.139a6.988 6.988 0 0 1 .961-3.821l3.983 4.779a8.435 8.435 0 0 1 1.951 5.39v14.855a1.517 1.517 0 0 0 3.034 0v-14.855a11.477 11.477 0 0 0-2.654-7.333l-4.233-5.08a6.849 6.849 0 0 1 1.151-.646l6.456-2.818 4.562 7.406a2.934 2.934 0 0 0 2.044 1.359 2.93 2.93 0 0 0 2.363-.667l2.891-2.467v25.1a1.517 1.517 0 0 0 3.035 0v-25.1l2.891 2.467a2.927 2.927 0 0 0 1.905.7 3 3 0 0 0 .457-.035 2.934 2.934 0 0 0 2.044-1.36l4.563-7.406 6.456 2.818a6.887 6.887 0 0 1 1.151.646l-4.233 5.08a11.478 11.478 0 0 0-2.655 7.333v14.855a1.518 1.518 0 1 0 3.035 0v-14.855a8.435 8.435 0 0 1 1.951-5.39l3.982-4.778a6.977 6.977 0 0 1 .962 3.821l-.9 21.138a1.518 1.518 0 0 0 1.452 1.58h.065a1.518 1.518 0 0 0 1.515-1.454l.9-21.138a10.1 10.1 0 0 0-6.016-9.622zm-21.048-55.355a6.952 6.952 0 0 1 6.757 4.851 19.222 19.222 0 0 0-13.513 0 6.95 6.95 0 0 1 6.756-4.848zm-12.452 34.418a2.954 2.954 0 0 0-3.072-2.407 1.319 1.319 0 0 1-.4-.034 1.483 1.483 0 0 1-1.014-1.471v-1.09a1.436 1.436 0 0 1 1.07-1.442 1.317 1.317 0 0 1 1.3.5 2.116 2.116 0 0 0 2.908.456 10.987 10.987 0 0 0 2.456-2.39 1.517 1.517 0 1 0-2.426-1.82 8.093 8.093 0 0 1-1.158 1.243 4.357 4.357 0 0 0-2.29-1.008 14.156 14.156 0 0 1-.439-3.487c0-8.163 6.96-14.806 15.516-14.806s15.516 6.643 15.516 14.806a14.094 14.094 0 0 1-.437 3.48 7 7 0 0 0-1.181.2l-1.14-.938a2.915 2.915 0 0 0-2.025-.663c-2.23.131-13.651.434-19.511-6.58a1.517 1.517 0 0 0-2.328 1.946c2.89 3.458 7.128 5.8 12.6 6.951a37.115 37.115 0 0 0 9.369.714l1.779 1.464a1.516 1.516 0 0 0 1.725.141 3.338 3.338 0 0 1 1.495-.2 1.43 1.43 0 0 1 1.076 1.424v1.106a1.481 1.481 0 0 1-1.015 1.471 1.28 1.28 0 0 1-.4.034 2.955 2.955 0 0 0-3.072 2.407 12.662 12.662 0 0 1-24.905 0zm6.161 26.617l-4.563-7.407 2.338-2.338 6.282 6.283zm6.291-5.52l-5.58-5.58v-3.139a15.681 15.681 0 0 0 11.16 0v3.139zm6.291 5.52l-4.057-3.462 6.283-6.283 2.338 2.338z" class="cls-1" data-name="Path 3175" transform="translate(-1026.5 -11040.563)"/>
    <path id="Path_3176" d="M1152.68 11093.186h-25.63a10.008 10.008 0 0 0-3.4-2.185l-8.262-3.187-4.212-4.213a1.512 1.512 0 0 0-.975-.439v-3.353a15.64 15.64 0 0 0 3.969-7.816 4.347 4.347 0 0 0 1.064-.085 4.49 4.49 0 0 0 3.484-4.453v-1.106a4.55 4.55 0 0 0-1.336-3.227c1.339-7.287.236-13.225-3.206-17.2-3.329-3.844-8.693-5.682-15.51-5.312a20.305 20.305 0 0 0-11.653 4.3 7.988 7.988 0 0 0-3.122 1.06c-1.685 1.012-3.694 3.135-3.694 7.512a37.873 37.873 0 0 0 1.052 8.813 4.5 4.5 0 0 0-2.471 4.072v1.089a4.49 4.49 0 0 0 3.483 4.453 4.356 4.356 0 0 0 1.065.085 15.642 15.642 0 0 0 3.968 7.816v3.353a1.509 1.509 0 0 0-.975.439l-4.212 4.213-8.262 3.187a9.987 9.987 0 0 0-2.029 1.063 1.517 1.517 0 0 0 1.7 2.51 6.973 6.973 0 0 1 1.416-.741l7.667-2.958 5.863 8.794a4.346 4.346 0 0 0 1.5 1.387v33.8a3.645 3.645 0 0 0 3.641 3.641h59.07a3.645 3.645 0 0 0 3.641-3.641v-38.031a3.646 3.646 0 0 0-3.634-3.64zm-37.788-2.312l5.994 2.312h-7.536zm-2.482-1.748l-2.706 4.06h-7.023l7.354-6.435zm-13.661 3.469l-8.419-7.367v-2.9a15.7 15.7 0 0 0 16.837 0v2.9zm-12.453-21.228a2.952 2.952 0 0 0-3.072-2.407 1.315 1.315 0 0 1-.353-.024 1.472 1.472 0 0 1-1.058-1.48v-1.089a1.438 1.438 0 0 1 1.071-1.443 1.316 1.316 0 0 1 1.3.5 2.117 2.117 0 0 0 2.908.456 11.047 11.047 0 0 0 2.488-2.432 1.517 1.517 0 0 0-2.435-1.812 8.076 8.076 0 0 1-1.182 1.277 4.35 4.35 0 0 0-1.645-.879 34.877 34.877 0 0 1-1.084-8.551c0-2.324.717-3.956 2.129-4.853a4.913 4.913 0 0 1 2.268-.728 1.53 1.53 0 0 0 1.047-.419 17.091 17.091 0 0 1 10.154-3.842c5.847-.315 10.36 1.16 13.053 4.27 2.713 3.133 3.617 7.943 2.637 13.966a6.517 6.517 0 0 0-1.294.09l-1.426-3.423a1.516 1.516 0 0 0-1.784-.885c-.141.037-14.152 3.589-20.027-3.727a1.518 1.518 0 0 0-2.366 1.9c6 7.469 17.9 5.844 21.866 5.051l1.1 2.647a2.494 2.494 0 0 0 2.882 1.478 3.244 3.244 0 0 1 1.135-.083 1.431 1.431 0 0 1 1.076 1.424v1.106a1.472 1.472 0 0 1-1.058 1.48 1.276 1.276 0 0 1-.353.023 2.955 2.955 0 0 0-3.072 2.408 12.661 12.661 0 0 1-24.905 0zm3.691 25.108l-4.9-7.35 2.375-2.375 7.354 6.435h-1.206a3.646 3.646 0 0 0-3.623 3.291zm63.907 38.384a1.216 1.216 0 0 1-1.214 1.214h-59.07a1.216 1.216 0 0 1-1.214-1.214v-1.246a3.629 3.629 0 0 0 1.214.213h59.07a3.63 3.63 0 0 0 1.214-.213zm0-4.675a1.216 1.216 0 0 1-1.214 1.214h-59.07a1.216 1.216 0 0 1-1.214-1.214v-33.356a1.215 1.215 0 0 1 1.214-1.214h59.07a1.215 1.215 0 0 1 1.214 1.214z" class="cls-2" data-name="Path 3176" transform="translate(-1026.5 -11040.563)"/>
</svg>
