<svg xmlns="http://www.w3.org/2000/svg" xmlns:xlink="http://www.w3.org/1999/xlink" width="164.468" height="110.352" viewBox="0 0 164.468 110.352"><defs><linearGradient id="a" x1="0.589" y1="2.198" x2="0.339" y2="-1.928" gradientUnits="objectBoundingBox"><stop offset="0" stop-color="#9cc5e8"/><stop offset="1" stop-color="#9cc5e8" stop-opacity="0"/></linearGradient><linearGradient id="b" x1="0.743" y1="22.008" x2="0.172" y2="-28.539" xlink:href="#a"/><linearGradient id="c" x1="0.725" y1="20.449" x2="0.154" y2="-30.098" xlink:href="#a"/><linearGradient id="d" x1="0.629" y1="18.053" x2="0.258" y2="-32.495" xlink:href="#a"/><linearGradient id="e" x1="0.661" y1="3.656" x2="0.294" y2="-3.54" xlink:href="#a"/><linearGradient id="f" x1="0.838" y1="9.863" x2="0.082" y2="-11.482" xlink:href="#a"/><linearGradient id="g" x1="0.678" y1="16.244" x2="0.107" y2="-34.303" xlink:href="#a"/><linearGradient id="h" x1="0.509" y1="1.061" x2="0.453" y2="-0.577" xlink:href="#a"/></defs><path d="M1908.637,10066.059h-10.595v-8.939a1.794,1.794,0,0,0-1.789-1.788H1894.4v-2.414a1.793,1.793,0,0,0-1.788-1.788h-6.169v-3.643a1.788,1.788,0,1,0-3.576,0v3.643h-3.8a1.794,1.794,0,0,0-1.788,1.788v2.414h-1.855a1.794,1.794,0,0,0-1.788,1.788v30.6a1.794,1.794,0,0,0,1.788,1.788h33.215a1.794,1.794,0,0,0,1.788-1.788v-19.892A1.763,1.763,0,0,0,1908.637,10066.059Zm-27.783-11.353h9.968v.625h-9.968Zm7.353,31.224h-4.761v-3.956h4.761Zm6.258,0h-2.682v-5.744a1.792,1.792,0,0,0-1.788-1.787h-8.337a1.793,1.793,0,0,0-1.788,1.787v5.744h-2.66v-27.022h17.255Zm12.384,0h-8.807v-2.324a1.762,1.762,0,0,0,1.587.983h5.588a1.767,1.767,0,0,0,1.632-1.05Zm0-3.866a1.889,1.889,0,0,0-1.632-1.073h-5.588a1.788,1.788,0,0,0-1.587.983v-3.308a1.764,1.764,0,0,0,1.587.983h5.588a1.766,1.766,0,0,0,1.632-1.051Zm0-4.917a1.887,1.887,0,0,0-1.632-1.073h-5.588a1.788,1.788,0,0,0-1.587.983v-3.085a1.762,1.762,0,0,0,1.587.983h5.588a1.767,1.767,0,0,0,1.632-1.05Zm0-4.694a1.828,1.828,0,0,0-1.632-1.05h-5.588a1.789,1.789,0,0,0-1.587.982v-2.771h8.807Z" transform="translate(-1827.032 -10024.147)" fill="url(#a)"/><path d="M1879.513,10067.155h12.516a1.788,1.788,0,0,0,0-3.576h-12.516a1.788,1.788,0,0,0,0,3.576Z" transform="translate(-1827.032 -10024.147)" fill="url(#b)"/><path d="M1879.513,10072.743h12.516a1.788,1.788,0,0,0,0-3.576h-12.516a1.788,1.788,0,0,0,0,3.576Z" transform="translate(-1827.032 -10024.147)" fill="url(#c)"/><path d="M1863.2,10079.448h-21.233a1.788,1.788,0,0,0,0,3.576H1863.2a1.788,1.788,0,0,0,0-3.576Z" transform="translate(-1827.032 -10024.147)" fill="url(#d)"/><path d="M1852.736,10052.113a12.567,12.567,0,0,0-9.12,21.188,12.558,12.558,0,1,0,9.12-21.188Zm7.063,18.081a8.981,8.981,0,1,1-1.543-12.605A8.969,8.969,0,0,1,1859.8,10070.194Z" transform="translate(-1827.032 -10024.147)" fill="url(#e)"/><path d="M1855.932,10060.83l-4.672,3.8-1.452-1.7a1.793,1.793,0,0,0-2.749,2.3l.022.022,2.593,3.019a1.788,1.788,0,0,0,2.48.223l5.991-4.9a1.784,1.784,0,0,0,.268-2.524A1.75,1.75,0,0,0,1855.932,10060.83Z" transform="translate(-1827.032 -10024.147)" fill="url(#f)"/><path d="M1854.479,10086.154h-12.516a1.788,1.788,0,0,0,0,3.576h12.516a1.788,1.788,0,1,0,0-3.576Z" transform="translate(-1827.032 -10024.147)" fill="url(#g)"/><path d="M1989.936,10127.4c1.1-.988,1.564-3.257,1.564-7.4a5.711,5.711,0,0,0-3.079-5.223,12.676,12.676,0,0,0-6.2-1.321,27.7,27.7,0,0,0-5.83.688c-.584-2.919-1.294-6.5-2.161-10.937a10.907,10.907,0,0,0-8.311-8.537h0c-.073-.021.627.154-16.669-4.134v-.587h12.732a4.765,4.765,0,0,0,4.76-4.759v-24.283a5.954,5.954,0,0,0,0-2.746v-8.863a1.617,1.617,0,1,0-3.233,0v4.641a8.4,8.4,0,0,0-2.879-1.057,4.22,4.22,0,0,0-3.553-3.25,5.271,5.271,0,0,1-4.167-3.2,2.771,2.771,0,0,0-4.725-.432,29.578,29.578,0,0,1-23.845,12.264c-.319,0-.593,0-.843-.012v-9.2a10.948,10.948,0,0,0-6.11-9.812,21.3,21.3,0,0,1,18.915-11.858h.112a27.553,27.553,0,0,1,12.224,3.007c2.073,1.144,3.353.234,5.4.234,4.995,0,9,5.137,9.478,9.756,0,.068.01.339.011,1.377a1.648,1.648,0,0,0,1.617,1.615,1.617,1.617,0,0,0,1.616-1.618c0-.287,0-1.413-.025-1.674-.65-6.431-6.135-12.689-12.7-12.689-2.563,0-2.963.65-3.837.168a31.019,31.019,0,0,0-13.769-3.408,24.531,24.531,0,0,0-22.164,14.1h0a10.905,10.905,0,0,0-1.724-.149h-74.564a10.97,10.97,0,0,0-10.952,10.952v54.581a10.955,10.955,0,0,0,10.952,10.952h35.27v15.154H1856.8a2.012,2.012,0,1,0,0,4.023h38a2.012,2.012,0,0,0,0-4.023h-17.524v-15.154h24.781c-2.585,12.983-2.451,12.3-2.46,12.369-.593,4.193,1.506,7.546,6.554,7.546h17.483a1.617,1.617,0,0,0,0-3.233h-6.084v-15.249a1.617,1.617,0,0,0-3.234,0v15.249h-8.165c-2.148,0-3.4-.691-3.416-2.947-.007-.905-.035-.354,2.632-13.734h7.18a10.955,10.955,0,0,0,10.952-10.952v-7.684c10.13,11.937,9.538,11.312,10.142,11.9,3.54,3.454,8.591,3.21,11.917-.694l9.984-11.728,9.5,2.354a7.838,7.838,0,0,1,6.021,6.057c.9,4.566,1.625,8.231,2.216,11.2-3.246,1.149-5.779,2.867-5.779,4.967a1.6,1.6,0,0,0,.03.3l1.266,6.159a1.477,1.477,0,0,0,.7.964v3.794a.047.047,0,0,1-.047.047h-5.108a.047.047,0,0,1-.048-.047v-15.078a1.7,1.7,0,0,0-1.381-1.724,1.617,1.617,0,0,0-1.852,1.6v15.2a.047.047,0,0,1-.047.048H1931.3a1.7,1.7,0,0,0-1.725,1.383,1.617,1.617,0,0,0,1.6,1.851h41.226a6.741,6.741,0,0,0,5.2-1.984.041.041,0,0,1,.033-.015h11.253a1.612,1.612,0,0,0,1.612-1.612v-2.275A1.6,1.6,0,0,0,1989.936,10127.4Zm-70.459-23.765a6.921,6.921,0,0,1-6.929,6.929h-74.564a6.934,6.934,0,0,1-6.929-6.929v-5.879h88.422Zm0-9.9h-88.422v-44.68a6.934,6.934,0,0,1,6.929-6.929h74.564a6.934,6.934,0,0,1,6.929,6.929Zm41.262-37.513a4.055,4.055,0,0,1,2.773,2.391v1.852a4.054,4.054,0,0,1-2.773,2.39Zm0,10.247v-.3a8.376,8.376,0,0,0,2.773-1.037v20.061a1.527,1.527,0,0,1-1.526,1.525h-12.733v-1.249A21.4,21.4,0,0,0,1960.739,10066.465Zm-37.239-5a32.458,32.458,0,0,0,26.851-12.969,8.3,8.3,0,0,0,6.308,4.341.972.972,0,0,1,.846.958v12.668c0,16.087-19.258,24.034-30.639,13.171a18.515,18.515,0,0,1-3.366-4.354Zm0,19.332c.364.4.738.8,1.133,1.177a21.636,21.636,0,0,0,4.671,3.4v1.344h-5.8Zm0,9.151h5.8v.587l-5.8,1.438Zm19.6,15.107c-2.253,2.646-5.406,2.64-7.653-.013l-3.373-3.981H1946.5Zm6.154-7.228h-19.919l-2.779-3.28,4.758-1.179a1.635,1.635,0,0,0,1.228-1.586v-5a21.422,21.422,0,0,0,13.482.046c.03,5.167-.07,5.049.09,5.5a1.615,1.615,0,0,0,1.137,1.035l4.789,1.187Zm35.36,18.808c3.89.648,3.89,2.691,3.89,3.362a19.633,19.633,0,0,1-.375,4.574,1.568,1.568,0,0,0-.512-.085l-16.127.158-.958-4.66C1971.276,10118.581,1978.852,10115.678,1984.61,10116.638Z" transform="translate(-1827.032 -10024.147)" fill="url(#h)"/></svg>