<svg id="otelbits-logo" xmlns="http://www.w3.org/2000/svg" xmlns:xlink="http://www.w3.org/1999/xlink" width="281.389" height="40.311" viewBox="0 0 281.389 40.311">
  <defs>
    <linearGradient id="linear-gradient" x1="0.206" y1="1.139" x2="0.823" y2="-0.201" gradientUnits="objectBoundingBox">
      <stop offset="0" stop-color="#ffbe72"/>
      <stop offset="0.216" stop-color="#ffbe72" stop-opacity="0.761"/>
      <stop offset="0.604" stop-color="#ffbe72" stop-opacity="0.357"/>
      <stop offset="0.874" stop-color="#ffbe72" stop-opacity="0.098"/>
      <stop offset="1" stop-color="#ffbe72" stop-opacity="0"/>
    </linearGradient>
  </defs>
  <g id="Group_2439" data-name="Group 2439" transform="translate(-943.424 -10206.5)">
    <g id="KLONBITS">
      <g id="Group_2437" data-name="Group 2437">
        <path id="Path_3092" data-name="Path 3092" d="M1125.393,10240.435v-28.886h11.24c3.968,0,6.86.992,8.224,2.6a7.409,7.409,0,0,1,1.984,5.042,5.923,5.923,0,0,1-2.149,5.041l-1.075.743-1.033.455c3.637.785,5.869,3.348,5.869,6.984a7.784,7.784,0,0,1-2.067,5.331c-1.612,1.776-4.422,2.686-8.348,2.686Zm11.075-16.9c3.512,0,5.29-1.2,5.29-3.6,0-2.809-1.612-3.884-5.249-3.884h-6.24v7.48Zm1.446,12.4c3.637,0,5.538-.908,5.538-4.05,0-2.562-2.066-3.843-6.157-3.843h-7.026v7.893Z" fill="#5c5d5d"/>
        <path id="Path_3093" data-name="Path 3093" d="M1163.574,10211.549v28.886H1158.7v-28.886Z" fill="#5c5d5d"/>
        <path id="Path_3094" data-name="Path 3094" d="M1186.631,10240.435h-4.876v-24.423h-8.761v-4.463h22.4v4.463h-8.761Z" fill="#5c5d5d"/>
        <path id="Path_3095" data-name="Path 3095" d="M1202.456,10236.095l3.058-3.677a13.946,13.946,0,0,0,9.091,3.8c3.141,0,5.125-1.487,5.125-3.679a3.033,3.033,0,0,0-1.322-2.6,14.155,14.155,0,0,0-4.463-1.694,42.026,42.026,0,0,1-4.836-1.405,11.876,11.876,0,0,1-2.934-1.694c-1.694-1.281-2.562-3.265-2.562-5.95a7.171,7.171,0,0,1,2.893-6.157,11.832,11.832,0,0,1,7.231-2.191,16.547,16.547,0,0,1,10.208,3.472l-2.6,3.678c-2.52-2.314-8.719-3.554-11.282-1.777a2.906,2.906,0,0,0-1.363,2.646,3.019,3.019,0,0,0,1.363,2.686,20.474,20.474,0,0,0,5.786,1.984,15.766,15.766,0,0,1,6.7,3.017c1.529,1.281,2.273,3.183,2.273,5.744a7.544,7.544,0,0,1-2.852,6.116,11.34,11.34,0,0,1-7.479,2.354A17.68,17.68,0,0,1,1202.456,10236.095Z" fill="#5c5d5d"/>
      </g>
    </g>
    <g id="KLONBITS-2" data-name="KLONBITS">
      <g id="Group_2438" data-name="Group 2438">
        <path id="Path_3096" data-name="Path 3096" d="M999.222,10225.971c0-8.389,6.406-14.67,15.043-14.67,8.595,0,15.042,6.24,15.042,14.67s-6.447,14.67-15.042,14.67C1005.628,10240.641,999.222,10234.36,999.222,10225.971Zm27.936,0a12.493,12.493,0,0,0-12.893-12.728c-7.4,0-12.935,5.414-12.935,12.728s5.537,12.729,12.935,12.729A12.493,12.493,0,0,0,1027.158,10225.971Z" fill="#888"/>
        <path id="Path_3097" data-name="Path 3097" d="M1045.874,10213.408h-10.413v-1.9H1058.4v1.9h-10.414v27.026h-2.108Z" fill="#888"/>
        <path id="Path_3098" data-name="Path 3098" d="M1087.692,10238.533v1.9h-19.96v-28.927h19.34v1.9H1069.84v11.406h15.414v1.859H1069.84v11.859Z" fill="#888"/>
        <path id="Path_3099" data-name="Path 3099" d="M1099.508,10211.508h2.107v27.025h16.654v1.9h-18.761Z" fill="#888"/>
      </g>
    </g>
    <circle id="Ellipse_5" data-name="Ellipse 5" cx="4.219" cy="4.219" r="4.219" transform="translate(961.737 10210.267)" fill="#888"/>
    <circle id="Ellipse_6" data-name="Ellipse 6" cx="4.219" cy="4.219" r="4.219" transform="translate(961.737 10230.973)" fill="#888"/>
    <path id="Path_18" data-name="Path 18" d="M986.171,10230.973a4.192,4.192,0,0,0-1.067.145l-.733.014a2.883,2.883,0,0,1-2.048-.811l-1.463-1.422a2.868,2.868,0,0,1-.869-2.043l.027-.974a4.121,4.121,0,0,0-.032-2.046v-1.067a3.046,3.046,0,0,1,.924-2.173l1.355-1.314a3.051,3.051,0,0,1,2.178-.861h.248a4.237,4.237,0,1,0-2.453-2.443v.491a3.058,3.058,0,0,1-.889,2.157l-1.21,1.209a3.057,3.057,0,0,1-2.208.889l-1.968-.033h-.05a4.219,4.219,0,1,0,1.6,8.119l.487-.009a2.871,2.871,0,0,1,2.075.839l1.318,1.319a2.861,2.861,0,0,1,.841,2.027v.689a4.154,4.154,0,0,0-.281,1.5,4.221,4.221,0,1,0,4.221-4.22h0Z" fill="#888"/>
  </g>
  <rect id="Rectangle_21" data-name="Rectangle 21" width="13" height="40.311" fill="url(#linear-gradient)"/>
</svg>
