<svg id="svgSalesChannelPath" xmlns="http://www.w3.org/2000/svg" width="874.786" height="758.214" viewBox="0 0 874.786 758.214">
  <g id="sales-channel-path" transform="translate(0.5 0.5)">
    <line id="pathLine" data-name="Line 149" y2="466" transform="translate(576.5 21.714)" fill="#c4d4eb" stroke="#c4d4eb" stroke-miterlimit="10" stroke-width="1"/>
    <g id="Group_2450" data-name="Group 2450" transform="translate(-515.775 -10537.51)">
      <path id="Path_3115" data-name="Path 3115" d="M515.775,11295.224v-527.468a38.424,38.424,0,0,1,38.425-38.425l190.3,1" fill="none" stroke="#c4d4eb" stroke-miterlimit="10" stroke-width="1"/>
      <path id="Path_3116" data-name="Path 3116" d="M1145.775,10730.331" fill="none" stroke="#c4d4eb" stroke-miterlimit="10" stroke-width="1"/>
    </g>
    <path id="pathRightTop" data-name="Path 3117" d="M1193.561,10537.51h157.575a38.425,38.425,0,0,1,38.425,38.426v121" transform="translate(-515.775 -10537.51)" fill="none" stroke="#c4d4eb" stroke-miterlimit="10" stroke-width="1"/>
    <path id="pathLeftTop" data-name="Path 3118" d="M987.561,10537.51H829.987a38.426,38.426,0,0,0-38.426,38.426v121" transform="translate(-515.775 -10537.51)" fill="none" stroke="#c4d4eb" stroke-miterlimit="10" stroke-width="1"/>
    <path id="PathRightBottom" data-name="Path 3119" d="M1193.561,11121.937h157.575a38.424,38.424,0,0,0,38.425-38.425v-248" transform="translate(-515.775 -10537.51)" fill="none" stroke="#c4d4eb" stroke-miterlimit="10" stroke-width="1"/>
    <path id="PathLeftBottom" data-name="Path 3120" d="M987.561,11121.937H829.987a38.425,38.425,0,0,1-38.426-38.425v-248" transform="translate(-515.775 -10537.51)" fill="none" stroke="#c4d4eb" stroke-miterlimit="10" stroke-width="1"/>
  </g>
</svg>
